<svg viewBox="0 0 241 44" fill="none" xmlns="http://www.w3.org/2000/svg" xmlns:xlink="http://www.w3.org/1999/xlink"><path id="path" d="M57.25 3.64C56.64 3.33 56.37 3.91 56.01 4.21C55.89 4.3 55.79 4.43 55.68 4.54C54.79 5.52 53.74 6.16 52.37 6.08C50.38 5.97 48.67 6.61 47.16 8.16C46.84 6.24 45.77 5.1 44.15 4.36C43.3 3.98 42.45 3.6 41.85 2.77C41.44 2.17 41.32 1.51 41.12 0.86C40.98 0.47 40.85 0.07 40.41 0C39.93 -0.07 39.74 0.34 39.55 0.68C38.8 2.09 38.5 3.64 38.53 5.2C38.6 8.73 40.06 11.54 42.96 13.54C43.29 13.76 43.38 13.99 43.27 14.33C43.08 15.02 42.84 15.68 42.63 16.37C42.5 16.81 42.3 16.91 41.84 16.72C40.25 16.04 38.87 15.04 37.65 13.82C35.59 11.79 33.72 9.54 31.39 7.78C30.85 7.37 30.3 6.99 29.73 6.63C27.36 4.28 30.05 2.35 30.67 2.12C31.32 1.88 30.89 1.06 28.79 1.06C26.69 1.07 24.77 1.79 22.31 2.75C21.96 2.89 21.58 3 21.19 3.08C18.97 2.65 16.66 2.56 14.24 2.83C9.7 3.35 6.07 5.54 3.4 9.27C0.19 13.76 -0.56 18.87 0.36 24.19C1.33 29.8 4.14 34.44 8.46 38.07C12.94 41.84 18.1 43.68 23.98 43.33C27.56 43.12 31.54 42.63 36.02 38.76C37.16 39.33 38.34 39.56 40.31 39.74C41.83 39.88 43.29 39.66 44.43 39.42C46.2 39.04 46.08 37.37 45.43 37.06C40.24 34.6 41.38 35.6 40.34 34.79C42.98 31.6 46.96 28.3 48.52 17.59C48.64 16.74 48.54 16.2 48.52 15.51C48.51 15.09 48.6 14.93 49.07 14.88C50.38 14.73 51.64 14.37 52.8 13.72C56.16 11.84 57.52 8.77 57.84 5.08C57.89 4.51 57.83 3.93 57.25 3.64ZM27.91 36.83C22.88 32.8 20.44 31.47 19.43 31.53C18.49 31.59 18.65 32.68 18.86 33.4C19.08 34.11 19.36 34.6 19.76 35.22C20.03 35.63 20.22 36.24 19.48 36.7C17.86 37.72 15.04 36.35 14.91 36.29C11.63 34.32 8.89 31.72 6.95 28.16C5.09 24.74 4 21.07 3.82 17.16C3.78 16.21 4.05 15.88 4.97 15.7C6.19 15.48 7.44 15.43 8.66 15.61C13.8 16.37 18.17 18.71 21.84 22.42C23.94 24.53 25.52 27.06 27.15 29.52C28.89 32.14 30.75 34.63 33.13 36.68C33.97 37.4 34.64 37.94 35.28 38.34C33.35 38.56 30.12 38.61 27.91 36.83ZM30.33 21.02C30.33 20.6 30.66 20.26 31.07 20.26C31.17 20.26 31.25 20.28 31.33 20.31C31.43 20.35 31.53 20.41 31.6 20.49C31.73 20.63 31.81 20.82 31.81 21.02C31.81 21.44 31.48 21.77 31.06 21.77C30.65 21.77 30.33 21.44 30.33 21.02ZM37.82 24.93C37.34 25.14 36.86 25.31 36.4 25.33C35.68 25.36 34.9 25.07 34.48 24.71C33.82 24.14 33.35 23.83 33.15 22.84C33.06 22.42 33.11 21.77 33.19 21.4C33.36 20.6 33.17 20.08 32.61 19.61C32.16 19.23 31.58 19.12 30.95 19.12C30.72 19.12 30.5 19.02 30.34 18.93C30.07 18.8 29.86 18.47 30.06 18.05C30.13 17.92 30.45 17.6 30.53 17.54C31.38 17.04 32.37 17.2 33.29 17.58C34.14 17.93 34.78 18.58 35.7 19.5C36.65 20.61 36.82 20.91 37.35 21.74C37.78 22.39 38.16 23.06 38.43 23.83C38.59 24.3 38.38 24.7 37.82 24.93Z" fill="#4D6BFE" fill-opacity="1.000000" fill-rule="nonzero"></path><path id="path" d="M143.32 34.23L140.83 34.23L140.83 30.37L143.32 30.37C144.86 30.37 146.42 29.99 147.43 28.92C148.44 27.85 148.81 26.21 148.81 24.57C148.81 22.94 148.44 21.3 147.43 20.23C146.42 19.16 144.86 18.78 143.32 18.78C141.77 18.78 140.22 19.16 139.21 20.23C138.19 21.3 137.83 22.94 137.83 24.57L137.83 40.44L133.46 40.44L133.46 14.92L137.83 14.92L137.83 16.54L138.63 16.54C138.71 16.45 138.8 16.36 138.9 16.27C139.99 15.27 141.66 14.92 143.32 14.92C145.89 14.92 148.48 15.56 150.17 17.34C151.85 19.12 152.46 21.86 152.46 24.58C152.46 27.29 151.85 30.03 150.17 31.81C148.48 33.6 145.89 34.23 143.32 34.23Z" fill="#4D6BFE" fill-opacity="1.000000" fill-rule="nonzero"></path><path id="path" d="M76.79 15.59L79.28 15.59L79.28 19.45L76.79 19.45C75.25 19.45 73.69 19.83 72.68 20.91C71.67 21.98 71.3 23.62 71.3 25.25C71.3 26.88 71.67 28.52 72.68 29.59C73.69 30.66 75.25 31.05 76.79 31.05C78.34 31.05 79.89 30.66 80.9 29.59C81.92 28.52 82.28 26.88 82.28 25.25L82.28 9.39L86.65 9.39L86.65 34.91L82.28 34.91L82.28 33.28L81.48 33.28C81.4 33.38 81.31 33.47 81.21 33.55C80.12 34.55 78.45 34.91 76.79 34.91C74.22 34.91 71.63 34.27 69.94 32.48C68.26 30.7 67.65 27.97 67.65 25.25C67.65 22.53 68.26 19.8 69.94 18.01C71.63 16.23 74.22 15.59 76.79 15.59Z" fill="#4D6BFE" fill-opacity="1.000000" fill-rule="nonzero"></path><path id="path" d="M108.59 24.91L108.59 26.46L96.95 26.46L96.95 23.36L104.67 23.36C104.49 22.23 104.08 21.18 103.36 20.42C102.3 19.31 100.69 18.91 99.08 18.91C97.48 18.91 95.86 19.31 94.81 20.42C93.76 21.52 93.38 23.22 93.38 24.91C93.38 26.6 93.76 28.3 94.81 29.41C95.86 30.52 97.48 30.91 99.08 30.91C100.69 30.91 102.3 30.52 103.36 29.41C103.51 29.25 103.64 29.08 103.76 28.9L108.08 28.9C107.71 30.24 107.1 31.45 106.2 32.4C104.45 34.25 101.75 34.91 99.08 34.91C96.41 34.91 93.72 34.25 91.97 32.4C90.21 30.55 89.58 27.72 89.58 24.91C89.58 22.1 90.21 19.27 91.97 17.42C93.72 15.58 96.41 14.92 99.08 14.92C101.75 14.92 104.45 15.58 106.2 17.42C107.96 19.27 108.59 22.1 108.59 24.91Z" fill="#4D6BFE" fill-opacity="1.000000" fill-rule="nonzero"></path><path id="path" d="M130.52 24.91L130.52 26.46L118.88 26.46L118.88 23.36L126.61 23.36C126.43 22.23 126.02 21.18 125.29 20.42C124.24 19.31 122.63 18.91 121.02 18.91C119.42 18.91 117.8 19.31 116.75 20.42C115.7 21.52 115.32 23.22 115.32 24.91C115.32 26.6 115.7 28.3 116.75 29.41C117.8 30.52 119.42 30.91 121.02 30.91C122.63 30.91 124.24 30.52 125.29 29.41C125.44 29.25 125.58 29.08 125.7 28.9L130.02 28.9C129.64 30.24 129.04 31.45 128.14 32.4C126.38 34.25 123.69 34.91 121.02 34.91C118.35 34.91 115.66 34.25 113.9 32.4C112.15 30.55 111.52 27.72 111.52 24.91C111.52 22.1 112.15 19.27 113.9 17.42C115.66 15.58 118.35 14.92 121.02 14.92C123.69 14.92 126.38 15.58 128.14 17.42C129.89 19.27 130.52 22.1 130.52 24.91Z" fill="#4D6BFE" fill-opacity="1.000000" fill-rule="nonzero"></path><path id="path" d="M164.9 34.91C167.57 34.91 170.26 34.52 172.01 33.43C173.77 32.34 174.4 30.67 174.4 29.01C174.4 27.35 173.77 25.68 172.01 24.59C170.26 23.5 167.57 23.11 164.9 23.11L164.99 23.11C163.85 23.11 162.7 22.96 161.96 22.53C161.21 22.11 160.94 21.46 160.94 20.82C160.94 20.17 161.21 19.53 161.96 19.1C162.7 18.68 163.85 18.53 164.99 18.53C166.13 18.53 167.28 18.68 168.03 19.1C168.78 19.53 169.04 20.17 169.04 20.82L173.49 20.82C173.49 19.16 172.92 17.49 171.34 16.4C169.75 15.31 167.32 14.92 164.9 14.92C162.48 14.92 160.05 15.31 158.46 16.4C156.87 17.49 156.3 19.16 156.3 20.82C156.3 22.48 156.87 24.15 158.46 25.24C160.05 26.33 162.48 26.72 164.9 26.72C166.16 26.72 167.53 26.87 168.36 27.29C169.19 27.71 169.48 28.36 169.48 29.01C169.48 29.65 169.19 30.3 168.36 30.72C167.53 31.14 166.26 31.3 165 31.3C163.74 31.3 162.47 31.14 161.65 30.72C160.82 30.3 160.52 29.65 160.52 29.01L155.4 29.01C155.4 30.67 156.03 32.34 157.78 33.43C159.53 34.52 162.22 34.91 164.9 34.91Z" fill="#4D6BFE" fill-opacity="1.000000" fill-rule="nonzero"></path><path id="path" d="M196.33 24.91L196.33 26.46L184.69 26.46L184.69 23.36L192.42 23.36C192.24 22.23 191.83 21.18 191.1 20.42C190.05 19.31 188.44 18.91 186.83 18.91C185.23 18.91 183.61 19.31 182.56 20.42C181.51 21.52 181.13 23.22 181.13 24.91C181.13 26.6 181.51 28.3 182.56 29.41C183.61 30.52 185.23 30.91 186.83 30.91C188.44 30.91 190.05 30.52 191.1 29.41C191.25 29.25 191.39 29.08 191.51 28.9L195.83 28.9C195.45 30.24 194.85 31.45 193.95 32.4C192.19 34.25 189.5 34.91 186.83 34.91C184.16 34.91 181.47 34.25 179.71 32.4C177.96 30.55 177.33 27.72 177.33 24.91C177.33 22.1 177.96 19.27 179.71 17.42C181.47 15.58 184.16 14.92 186.83 14.92C189.5 14.92 192.19 15.58 193.95 17.42C195.7 19.27 196.33 22.1 196.33 24.91Z" fill="#4D6BFE" fill-opacity="1.000000" fill-rule="nonzero"></path><path id="path" d="M218.27 24.91L218.27 26.46L206.63 26.46L206.63 23.36L214.36 23.36C214.17 22.23 213.77 21.18 213.04 20.42C211.99 19.31 210.37 18.91 208.77 18.91C207.17 18.91 205.55 19.31 204.5 20.42C203.44 21.52 203.07 23.22 203.07 24.91C203.07 26.6 203.44 28.3 204.5 29.41C205.55 30.52 207.17 30.91 208.77 30.91C210.37 30.91 211.99 30.52 213.04 29.41C213.19 29.25 213.32 29.08 213.45 28.9L217.77 28.9C217.39 30.24 216.79 31.45 215.88 32.4C214.13 34.25 211.44 34.91 208.77 34.91C206.1 34.91 203.4 34.25 201.65 32.4C199.9 30.55 199.27 27.72 199.27 24.91C199.27 22.1 199.9 19.27 201.65 17.42C203.4 15.58 206.1 14.92 208.77 14.92C211.44 14.92 214.13 15.58 215.88 17.42C217.64 19.27 218.27 22.1 218.27 24.91Z" fill="#4D6BFE" fill-opacity="1.000000" fill-rule="nonzero"></path><rect id="rect" x="221.211182" y="8.500488" width="4.371000" height="26.415646" fill="#4D6BFE" fill-opacity="1.000000"></rect><path id="polygon" d="M233.04 24.31L240.21 34.91L234.79 34.91L227.62 24.31L234.79 15.81L240.21 15.81L233.04 24.31Z" fill="#4D6BFE" fill-opacity="1.000000" fill-rule="nonzero"></path></svg>
